<svg width="58" height="28" viewBox="0 0 58 28" fill="none" xmlns="http://www.w3.org/2000/svg">
<path d="M9.649 27.5157C9.47597 27.6857 9.19869 27.6857 9.02566 27.5157L0.504444 19.1463C0.326957 18.972 0.326959 18.686 0.504448 18.5117L9.02566 10.1424C9.19869 9.9725 9.47597 9.97249 9.649 10.1424L18.1702 18.5117C18.3477 18.686 18.3477 18.972 18.1702 19.1463L9.649 27.5157Z" fill="#F4F4F4" stroke="#414D67" stroke-width="0.254164"/>
<path d="M29.0924 27.5157C28.9193 27.6857 28.6421 27.6857 28.469 27.5157L19.9478 19.1464C19.7703 18.9721 19.7703 18.6861 19.9478 18.5118L28.469 10.1424C28.6421 9.9725 28.9193 9.9725 29.0924 10.1424L37.6136 18.5118C37.7911 18.6861 37.7911 18.9721 37.6136 19.1464L29.0924 27.5157Z" fill="#F4F4F4" stroke="#414D67" stroke-width="0.254164"/>
<path d="M19.3072 17.8575C19.1342 18.0275 18.8569 18.0275 18.6839 17.8575L10.1626 9.48812C9.98516 9.31379 9.98516 9.02778 10.1627 8.85346L18.6839 0.484236C18.8569 0.314292 19.1342 0.314292 19.3072 0.484235L27.8284 8.85346C28.0059 9.02778 28.0059 9.31379 27.8284 9.48812L19.3072 17.8575Z" fill="#F4F4F4" stroke="#414D67" stroke-width="0.254164"/>
<path d="M38.8775 17.8575C38.7045 18.0275 38.4272 18.0275 38.2542 17.8575L29.733 9.48831C29.5555 9.31399 29.5555 9.02798 29.733 8.85366L38.2542 0.484247C38.4272 0.314299 38.7045 0.314299 38.8775 0.484247L47.3987 8.85366C47.5762 9.02798 47.5762 9.31399 47.3987 9.48831L38.8775 17.8575Z" fill="#F4F4F4" stroke="#414D67" stroke-width="0.254164"/>
<path d="M48.6627 27.5157C48.4896 27.6857 48.2124 27.6857 48.0393 27.5157L39.5181 19.1464C39.3406 18.9721 39.3406 18.6861 39.5181 18.5118L48.0393 10.1424C48.2124 9.9725 48.4896 9.9725 48.6627 10.1424L57.1839 18.5118C57.3614 18.6861 57.3614 18.9721 57.1839 19.1464L48.6627 27.5157Z" fill="#F4F4F4" stroke="#414D67" stroke-width="0.254164"/>
</svg>
