<svg xmlns="http://www.w3.org/2000/svg" xmlns:xlink="http://www.w3.org/1999/xlink" version="1.1" x="0px" y="0px" viewBox="0 0 90 112.5" enable-background="new 0 0 90 90" xml:space="preserve"><path d="M89.141,41.831c0.098-0.189,0.073-0.419-0.058-0.588c-0.134-0.168-0.352-0.246-0.56-0.194  c-0.098,0.024-2.308,0.562-3.856,2.173c-0.427-0.134-0.87-0.381-1.324-0.734c-1.361-1.064-2.817-3.66-4.21-7.505  c-0.046-3.401-1.793-5.929-1.868-6.034c-0.15-0.217-0.437-0.294-0.677-0.186c-0.241,0.108-0.37,0.373-0.309,0.629  c0.007,0.027,0.667,2.748,1.754,5.784c-0.007,1.234-0.303,2.409-0.821,3.526c-0.059-0.18-0.112-0.362-0.175-0.54  c-0.176-0.501-0.363-0.997-0.561-1.487c-0.564-1.407-1.234-2.76-1.962-4.077c0.154-0.031,0.296-0.122,0.376-0.27  c0.133-0.245,0.06-0.552-0.168-0.712c0,0-0.204-0.144-0.546-0.339c-0.539-0.43-1.224-1.264-1.483-2.82  c-0.103-0.618-0.001-1.146,0.309-1.608c1.536,0.012,2.405-1.568,2.439-1.636c0.098-0.192,0.073-0.421-0.059-0.588  c-0.133-0.168-0.351-0.243-0.559-0.194c-0.058,0.014-1.303,0.316-2.237,1.214c-0.182-0.074-0.371-0.188-0.565-0.34  c-0.75-0.586-1.562-2.039-2.348-4.203c-0.041-2.019-1.077-3.52-1.123-3.583c-0.15-0.217-0.437-0.295-0.676-0.186  c-0.241,0.108-0.37,0.374-0.309,0.63c0.016,0.064,0.384,1.581,1.009,3.333c-0.015,0.892-0.287,1.729-0.784,2.508  c-0.912-0.896-1.852-1.765-2.854-2.56c-1.073-0.851-2.193-1.644-3.356-2.375c-0.04-0.025-0.079-0.051-0.12-0.075  c-0.368-0.23-0.74-0.457-1.118-0.675c-5.383-3.104-11.605-4.916-18.24-5.016V2.032h-1.137v11.071  c-6.633,0.1-12.857,1.911-18.24,5.017c-0.377,0.217-0.75,0.443-1.119,0.674c-0.041,0.024-0.08,0.05-0.12,0.075  c-1.163,0.731-2.284,1.524-3.357,2.375c-1.573,1.249-3.045,2.618-4.398,4.098c-0.298,0.326-0.591,0.658-0.878,0.995  c-0.55,0.645-1.078,1.308-1.584,1.988c-0.417,0.563-0.819,1.138-1.206,1.724c-1.369,2.075-2.537,4.292-3.473,6.626  c-0.198,0.49-0.383,0.986-0.56,1.487c-0.854,2.422-1.468,4.956-1.805,7.573c-0.057,0.441-0.104,0.884-0.144,1.327  c-0.106,1.143-0.164,2.298-0.164,3.468c0,1.916,0.146,3.8,0.426,5.64c0.062,0.402,0.132,0.803,0.205,1.201  c0.264,1.415,0.63,2.792,1.051,4.146c-1.161-1.786-3.085-2.608-3.172-2.646c-0.226-0.095-0.489-0.026-0.643,0.17  c-0.152,0.194-0.156,0.466-0.009,0.665c0.06,0.081,1.449,1.952,3.158,2.834c0.264,0.527,0.407,1.089,0.427,1.674  c0.023,0.666-0.171,1.254-0.599,1.798c-1.862,0.597-3.679,2.041-3.757,2.104c-0.199,0.16-0.263,0.436-0.152,0.665  c0.109,0.231,0.365,0.357,0.612,0.302c0.104-0.021,2.483-0.553,3.919-2.106c0.705-0.182,1.269-0.16,1.658,0.07  c0.89,0.525,1.322,3.808,1.098,8.364c-0.052,0.664-0.067,1.084-0.067,1.084c-0.009,0.298,0.22,0.551,0.519,0.568  c0.01,0,0.021,0,0.032,0c0.284,0,0.524-0.217,0.547-0.505c0,0,0.034-0.415,0.067-1.077c0.142-1.806,0.396-3.385,0.729-4.653  c1.27,1.953,2.701,3.793,4.304,5.473c0.286,0.299,0.578,0.593,0.875,0.883c2.212,2.17,4.691,4.069,7.385,5.644  c0.419,0.247,0.845,0.484,1.274,0.714c5.261,2.81,11.264,4.411,17.636,4.427c0.031,0.001,0.062,0.001,0.091,0.001  s0.059,0,0.091-0.001c6.372-0.016,12.375-1.617,17.635-4.427c0.431-0.229,0.854-0.467,1.276-0.714  c2.692-1.574,5.173-3.474,7.384-5.644c0.296-0.29,0.589-0.584,0.875-0.883c2.491-2.609,4.61-5.576,6.269-8.813  c0.181-0.351,0.354-0.708,0.524-1.066c1.121-2.37,1.982-4.883,2.587-7.492c-0.227,3.128,0.041,6.067,0.055,6.204  c0.025,0.273,0.249,0.485,0.522,0.498c0.008,0.001,0.017,0.001,0.025,0.001c0.263,0,0.491-0.188,0.54-0.449  c0.029-0.15,0.685-3.709,0.05-7.225c0.334-2.976,1.109-4.833,2.244-5.37c1.232-0.587,2.491-0.571,3.713,0.035  c1.071,1.288,2.136,1.723,2.182,1.74c0.229,0.092,0.493,0.021,0.644-0.178c0.148-0.197,0.148-0.471-0.001-0.666  c-0.034-0.044-0.813-1.052-2.112-1.764c-0.843-1.077-1.408-2.447-1.681-4.075c-0.206-1.24,0.039-2.333,0.729-3.257  C87.682,44.674,89.085,41.943,89.141,41.831z M72.347,47.874c-0.349,1.146-1.393,2.083-3.103,2.788  c-1.254,0.068-2.399,0.271-3.34,0.492c0.005-0.209,0.012-0.415,0.012-0.624c0-2.276-0.137-4.504-0.393-6.669  c2.324,0.367,4.489,0.787,6.5,1.244C72.419,46.026,72.616,46.993,72.347,47.874z M74.002,52.415  c0.481,0.185,0.943,0.397,1.365,0.661c0.918,0.573,1.642,1.438,2.166,2.585c-1.11-0.45-2.324-0.88-3.641-1.282  C73.949,53.73,73.977,53.072,74.002,52.415z M65.293,28.537c-0.122,0.401-0.42,0.759-0.887,1.066  c-0.944-0.049-1.813,0.144-2.521,0.382c-0.464-1.085-0.956-2.143-1.49-3.144c1.76,0.272,3.392,0.587,4.928,0.925  C65.366,28.032,65.368,28.294,65.293,28.537z M68.591,32.839c0.046-0.131,0.098-0.244,0.15-0.357  c0.366,0.729,0.721,1.466,1.042,2.228c-0.341-0.079-0.702-0.151-1.059-0.225C68.748,33.949,68.721,33.388,68.591,32.839z   M68.144,37.266c0.021-0.051,0.272-0.701,0.44-1.6c0.59,0.129,1.183,0.258,1.738,0.396c0.753,1.993,1.333,4.087,1.765,6.249  c-0.213-0.065-0.428-0.148-0.646-0.256c-1.621-2.08-3.579-3.621-3.663-3.687c-0.207-0.162-0.501-0.153-0.701,0.021  c-0.198,0.174-0.244,0.465-0.11,0.692c0.063,0.108,1.565,2.628,3.75,3.835c0.187,0.247,0.373,0.518,0.554,0.798  c-1.246-0.27-2.53-0.524-3.879-0.759c-0.486-0.084-0.98-0.166-1.479-0.246c-0.181-0.027-0.367-0.055-0.549-0.081  c-0.388-2.764-0.975-5.413-1.736-7.913c1.197,0.194,2.337,0.408,3.442,0.631c-0.043,0.963,0.011,1.706,0.016,1.761  c0.021,0.255,0.214,0.462,0.466,0.499c0.027,0.004,0.056,0.006,0.082,0.006C67.855,37.611,68.06,37.477,68.144,37.266z   M67.172,34.164c-1.271-0.256-2.571-0.501-3.951-0.716c-0.224-0.669-0.474-1.313-0.726-1.955c0.702-0.153,1.484-0.389,2.167-0.761  c0.584,0.076,1.131,0.271,1.627,0.58c0.563,0.354,0.942,0.846,1.154,1.502C67.315,33.253,67.23,33.714,67.172,34.164z   M62.201,23.635c0.037,0.063,0.919,1.541,2.214,2.28c0.126,0.167,0.251,0.35,0.368,0.541c-1.622-0.334-3.328-0.632-5.102-0.891  c-1.544-2.644-3.328-4.949-5.302-6.835c1.047,0.146,2.051,0.306,3.005,0.481c1.702,1.155,3.286,2.511,4.765,4.003  C62.112,23.354,62.124,23.504,62.201,23.635z M62.388,34.522c0.789,2.496,1.403,5.149,1.811,7.928  c-2.83-0.406-5.833-0.739-8.979-0.987c-0.25-2.77-0.614-5.405-1.078-7.881C57.069,33.819,59.825,34.138,62.388,34.522z   M54.469,52.18c-0.052,3.153-0.246,6.231-0.58,9.182c-2.348-0.22-4.759-0.377-7.19-0.471c0.111-2.944,0.175-6.012,0.188-9.146  C49.524,51.831,52.056,51.977,54.469,52.18z M53.749,62.515c-0.409,3.237-0.987,6.302-1.719,9.118  c-1.939-0.202-3.94-0.347-5.96-0.436c0.249-2.83,0.444-5.897,0.58-9.123C49.131,62.161,51.501,62.31,53.749,62.515z M54.896,62.624  c2.998,0.303,5.763,0.7,8.27,1.173c-0.827,3.277-1.949,6.322-3.317,9.055c-0.552-0.12-1.112-0.236-1.692-0.344  c-1.568-0.294-3.23-0.543-4.952-0.745C53.915,68.975,54.487,65.907,54.896,62.624z M55.029,61.473  c0.325-2.92,0.522-5.997,0.574-9.192c2.74,0.253,5.321,0.576,7.722,0.958c0.466,0.074,0.922,0.152,1.374,0.231  c-0.165,3.202-0.598,6.287-1.262,9.202C60.806,62.178,57.976,61.776,55.029,61.473z M72.876,52.056  c-0.023,0.669-0.047,1.336-0.102,1.994c-1.007-0.284-2.059-0.556-3.165-0.812c-0.454-0.105-0.915-0.207-1.385-0.306  c-0.485-0.104-0.978-0.204-1.479-0.302c-0.078-0.015-0.159-0.028-0.237-0.043c0.924-0.177,1.974-0.44,2.976-0.836  c0.207-0.01,0.416-0.013,0.629-0.013C71.106,51.739,72.026,51.848,72.876,52.056z M71.141,35.04  c-0.479-1.208-1.025-2.371-1.61-3.505c0.016-0.009,0.03-0.023,0.046-0.031c0.312-0.147,0.673-0.224,1.075-0.224  c0.728,0,1.467,0.243,2.074,0.508c0.857,1.405,1.644,2.858,2.305,4.381C73.824,35.77,72.525,35.393,71.141,35.04z M69.332,23.192  c0.656,1.447,1.33,2.446,2.014,2.979c0.186,0.146,0.374,0.269,0.563,0.369c-0.323,0.624-0.427,1.337-0.301,2.097  c0.117,0.697,0.308,1.279,0.538,1.765c-1.018-0.286-2.171-0.308-3.044,0.108c-0.423,0.201-0.784,0.53-1.079,0.984  c-0.296-0.447-0.68-0.819-1.152-1.115c-0.346-0.216-0.711-0.389-1.092-0.517c0.265-0.304,0.455-0.639,0.567-1.004  c0.229-0.753,0.105-1.599-0.367-2.524c0.87-0.029,1.672-0.506,2.384-1.417C68.789,24.373,69.114,23.797,69.332,23.192z   M61.397,20.103c2.053,1.332,3.948,2.881,5.687,4.586c-0.546,0.507-1.108,0.655-1.72,0.448c-1.604-1.998-3.373-3.816-5.32-5.373  C60.513,19.873,60.962,19.987,61.397,20.103z M57.81,18.055c-0.055-0.011-0.109-0.021-0.165-0.03  c-0.106-0.07-0.212-0.144-0.319-0.212C57.489,17.891,57.649,17.974,57.81,18.055z M54.633,17.554  c-0.61-0.082-1.231-0.158-1.857-0.229c-0.71-0.569-1.438-1.09-2.187-1.553C51.979,16.259,53.328,16.858,54.633,17.554z   M52.441,18.488c2.17,1.808,4.132,4.139,5.824,6.881c-2.086-0.275-4.245-0.499-6.452-0.668c-0.909-2.563-1.958-4.77-3.117-6.554  C49.992,18.238,51.242,18.353,52.441,18.488z M50.964,25.814c0.671,1.996,1.25,4.164,1.737,6.465  c-0.771-0.055-1.548-0.106-2.337-0.148c-1.351-0.074-2.728-0.13-4.123-0.171c-0.172-2.274-0.377-4.42-0.613-6.4  C47.467,25.611,49.245,25.697,50.964,25.814z M45.59,40.983c-1.336-0.03-2.688-0.046-4.056-0.046c-1.369,0-2.721,0.016-4.058,0.046  c0.094-2.734,0.229-5.368,0.404-7.855c0.752-0.017,1.509-0.03,2.277-0.035c0.457-0.004,0.915-0.006,1.377-0.006  c0.462,0,0.92,0.002,1.377,0.006c0.767,0.005,1.524,0.019,2.276,0.035C45.361,35.615,45.496,38.249,45.59,40.983z M45.1,31.932  c-0.732-0.016-1.468-0.028-2.209-0.033c-0.451-0.004-0.902-0.007-1.356-0.007c-0.455,0-0.905,0.003-1.355,0.007  c-0.742,0.005-1.479,0.018-2.21,0.033c0.173-2.278,0.381-4.422,0.619-6.398c0.969-0.02,1.949-0.031,2.947-0.031  c0.999,0,1.976,0.012,2.945,0.031C44.717,27.51,44.925,29.653,45.1,31.932z M41.533,14.231c0.009,0,0.577,0.11,1.313,2.484  c-0.438-0.006-0.874-0.01-1.313-0.01c-0.436,0-0.875,0.004-1.313,0.01C40.956,14.342,41.524,14.231,41.533,14.231z M37.586,24.366  c-1.698,0.051-3.389,0.13-5.061,0.242c0.982-2.667,2.104-4.871,3.31-6.554c0.935-0.052,1.893-0.089,2.869-0.114  C38.326,19.515,37.947,21.601,37.586,24.366z M18.518,62.886c-1.512,0.308-2.952,0.645-4.299,1.012  c-0.045,0.014-0.087,0.026-0.131,0.04c0.366-0.756,0.911-1.637,1.633-2.631c1.079-0.76,1.73-1.743,2.063-2.357  C17.986,60.288,18.227,61.606,18.518,62.886z M13.284,34.709c1.021-2.425,2.27-4.697,3.711-6.785  c1.739-0.402,3.637-0.766,5.676-1.082c-1.086,2.035-2.035,4.248-2.826,6.606C17.509,33.813,15.316,34.234,13.284,34.709z   M20.679,34.522c2.563-0.385,5.317-0.703,8.246-0.94c-0.463,2.476-0.828,5.111-1.079,7.881c-3.145,0.248-6.148,0.581-8.978,0.989  C19.276,39.673,19.89,37.019,20.679,34.522z M28.902,42.579c2.372-0.172,4.839-0.299,7.398-0.372  c-0.081,2.699-0.123,5.486-0.123,8.323c0,0.008,0,0.015,0,0.021c-2.615,0.085-5.149,0.233-7.589,0.438  c0-0.153-0.005-0.305-0.005-0.458C28.583,47.822,28.694,45.162,28.902,42.579z M36.18,51.745c0.013,3.134,0.076,6.201,0.188,9.146  c-2.431,0.094-4.841,0.251-7.191,0.471c-0.331-2.95-0.527-6.028-0.579-9.182C31.01,51.977,33.542,51.831,36.18,51.745z   M32.705,32.131c-0.791,0.042-1.568,0.094-2.339,0.148c0.486-2.301,1.065-4.469,1.737-6.465c1.717-0.117,3.497-0.203,5.335-0.255  c-0.236,1.98-0.44,4.127-0.613,6.4C35.429,32.001,34.054,32.057,32.705,32.131z M37.142,14.883  c-0.654,0.552-1.284,1.229-1.891,2.015c-0.932,0.057-1.856,0.125-2.771,0.207C33.963,16.121,35.522,15.368,37.142,14.883z   M32.477,15.771c-0.748,0.463-1.477,0.983-2.186,1.553c-0.627,0.071-1.247,0.147-1.856,0.23  C29.738,16.858,31.086,16.259,32.477,15.771z M25.739,17.813c-0.107,0.069-0.212,0.143-0.318,0.212  c-0.055,0.01-0.11,0.021-0.166,0.03C25.417,17.975,25.576,17.891,25.739,17.813z M30.625,18.488c1.199-0.136,2.449-0.25,3.745-0.341  c-1.159,1.784-2.208,3.992-3.117,6.554c-2.207,0.169-4.368,0.393-6.452,0.668C26.493,22.627,28.455,20.296,30.625,18.488z   M13.557,27.267c0.262-0.311,0.529-0.617,0.8-0.919c2.147-2.387,4.606-4.489,7.311-6.244c0.437-0.116,0.888-0.23,1.354-0.34  c-2.507,2.004-4.754,4.404-6.681,7.116c-0.352,0.083-1.044,0.252-1.044,0.252s-1.569,0.309-1.477,0.394  c-0.212,0.061-0.423,0.122-0.63,0.183C13.312,27.56,13.435,27.413,13.557,27.267z M16.321,53.844  c0.299-0.058,0.611-0.113,0.917-0.172c0.073,1.345,0.203,2.663,0.366,3.963c-0.168-0.017-0.342,0.037-0.462,0.17  c-0.045,0.05-1.096,1.203-2.198,2.7c-0.886,0.579-1.888,0.83-3.043,0.755c-0.123-0.009-0.237-0.03-0.352-0.053  c-0.516-1.923-0.91-3.906-1.141-5.951C12.195,54.744,14.167,54.269,16.321,53.844z M9.274,55.593  c0.009-0.002,0.018-0.006,0.026-0.009c0.195,1.663,0.518,3.277,0.901,4.861c-0.374-0.418-0.658-0.993-0.849-1.744  C9.412,57.536,9.345,56.381,9.274,55.593z M8.245,58.803c-0.111,1.742-0.524,2.846-1.139,3.034c-0.06,0.019-0.125,0.026-0.188,0.036  C6.379,60.259,5.925,58.606,5.62,56.9c0.721-0.3,1.526-0.589,2.365-0.871C7.971,56.813,8.017,57.82,8.245,58.803z M7.436,37.63  c1.207-0.43,2.536-0.84,3.977-1.227c-0.885,2.489-1.546,5.11-1.947,7.831c-1.428,0.349-2.775,0.722-4.039,1.113  C5.814,42.671,6.494,40.086,7.436,37.63z M5.055,50.53c0-1.305,0.071-2.594,0.206-3.863c1.247-0.402,2.593-0.785,4.034-1.147  c-0.191,1.64-0.291,3.313-0.291,5.011c0,1.3,0.058,2.584,0.17,3.849c-0.027,0.009-0.054,0.019-0.082,0.027  c-0.097-0.16-0.27-0.268-0.467-0.268c-0.275,0-0.507,0.201-0.545,0.474c-0.002,0.012-0.008,0.058-0.016,0.132  c-0.93,0.308-1.823,0.624-2.638,0.959C5.183,54.013,5.055,52.286,5.055,50.53z M9.122,69.772c-0.22-1.759-0.676-3.176-1.52-3.675  c-0.388-0.229-0.846-0.345-1.363-0.345c-0.019,0-0.038,0-0.058,0.001c0.205-0.495,0.299-1.022,0.28-1.579  c-0.015-0.408-0.076-0.806-0.184-1.194c0.403,0.05,0.789,0.02,1.15-0.092c0.771-0.237,1.315-0.945,1.629-2.117  c0.791,1.166,1.874,1.522,2.767,1.587c0.708,0.046,1.352-0.009,1.973-0.164c-0.833,1.354-1.285,2.47-1.345,3.334  c-0.021,0.301,0.019,0.592,0.119,0.873c-0.848,0.02-1.524,0.263-2.014,0.726C9.939,67.714,9.475,68.674,9.122,69.772z   M14.112,68.101c1.856,1.166,4.675,1.656,4.813,1.68c0.268,0.045,0.516-0.104,0.608-0.35c0.092-0.247-0.005-0.524-0.229-0.662  c-0.121-0.073-2.893-1.752-5.391-2.237c-0.267-0.305-0.388-0.609-0.365-0.926c0.007-0.094,0.024-0.197,0.045-0.303  c0.205-0.062,0.404-0.123,0.616-0.184c0.444-0.126,0.9-0.25,1.37-0.371c0.472-0.119,0.953-0.238,1.451-0.354  c0.567-0.131,1.158-0.256,1.759-0.379c0.827,3.279,1.946,6.335,3.31,9.093c-0.218,0.053-0.435,0.106-0.647,0.16  c-1.297,0.335-2.491,0.708-3.558,1.117C16.442,72.464,15.188,70.347,14.112,68.101z M23.804,82.242  c-2.802-1.558-5.378-3.472-7.665-5.683c0.436-0.24,0.92-0.477,1.46-0.707c1.921,2.402,4.11,4.514,6.513,6.274  C24.01,82.167,23.903,82.203,23.804,82.242z M23.219,72.852c-1.368-2.732-2.491-5.779-3.317-9.055  c2.506-0.473,5.271-0.872,8.269-1.173c0.409,3.283,0.981,6.351,1.692,9.139c-1.721,0.202-3.384,0.451-4.952,0.745  C24.332,72.615,23.771,72.731,23.219,72.852z M25.23,82.993c0.026-0.01,0.056-0.019,0.084-0.028  c0.143,0.095,0.282,0.192,0.425,0.284C25.568,83.166,25.399,83.077,25.23,82.993z M26.738,82.536  c0.546-0.147,1.122-0.287,1.725-0.417c1.265,1.238,2.608,2.301,4.015,3.169C30.473,84.589,28.552,83.662,26.738,82.536z   M32.508,76.405c-0.418-1.14-0.802-2.347-1.156-3.603c1.813-0.189,3.735-0.331,5.753-0.417c0.144,1.506,0.303,2.941,0.478,4.288  c0.149,1.146,0.302,2.172,0.457,3.099c-1.359,0.062-2.685,0.158-3.963,0.288C33.524,78.961,32.998,77.741,32.508,76.405z   M34.687,81.196c1.151-0.108,2.343-0.187,3.563-0.239c0.53,2.84,1.074,4.531,1.574,5.535C38.015,85.781,36.254,83.958,34.687,81.196  z M41.533,86.83c-0.013,0-1.042-0.199-2.133-5.911c0.706-0.02,1.416-0.034,2.133-0.034c0.718,0,1.428,0.015,2.133,0.034  C42.575,86.63,41.547,86.83,41.533,86.83z M44.355,76.527c-0.156,1.203-0.316,2.263-0.476,3.201  c-0.774-0.023-1.557-0.039-2.347-0.039c-0.791,0-1.572,0.016-2.347,0.039c-0.159-0.938-0.318-1.998-0.474-3.201  c-0.171-1.315-0.328-2.714-0.469-4.183c1.073-0.033,2.169-0.051,3.29-0.051c1.122,0,2.218,0.018,3.29,0.051  C44.683,73.813,44.526,75.212,44.355,76.527z M41.533,71.099c-1.13,0-2.265,0.02-3.398,0.057c-0.25-2.825-0.445-5.892-0.583-9.115  c1.3-0.037,2.625-0.056,3.98-0.056s2.682,0.019,3.981,0.056c-0.137,3.224-0.332,6.29-0.582,9.115  C43.798,71.118,42.663,71.099,41.533,71.099z M45.483,76.674c0.175-1.347,0.334-2.782,0.478-4.288  c2.019,0.086,3.94,0.228,5.753,0.417c-0.354,1.257-0.738,2.463-1.156,3.603c-0.489,1.336-1.014,2.556-1.568,3.655  c-1.278-0.13-2.604-0.227-3.963-0.288C45.181,78.846,45.333,77.82,45.483,76.674z M49.639,81.325  c0.024,0.003,0.052,0.005,0.077,0.009c0.965,0.109,1.895,0.239,2.784,0.388c0.259,0.042,0.51,0.088,0.76,0.134  c-2.235,2.048-4.706,3.534-7.335,4.322C47.266,85.045,48.514,83.396,49.639,81.325z M50.589,85.288  c1.406-0.868,2.75-1.931,4.015-3.169c0.604,0.129,1.18,0.27,1.726,0.417C54.515,83.662,52.594,84.589,50.589,85.288z M55.57,81.116  c1.799-1.952,3.419-4.268,4.814-6.877c1.492,0.359,2.823,0.756,3.975,1.178c-1.978,2.425-4.239,4.534-6.725,6.259  c-0.381-0.119-0.774-0.233-1.189-0.342C56.162,81.259,55.868,81.187,55.57,81.116z M57.325,83.25  c0.144-0.093,0.284-0.19,0.428-0.285c0.027,0.01,0.056,0.019,0.083,0.028C57.667,83.077,57.498,83.166,57.325,83.25z M59.263,82.242  c-0.099-0.039-0.206-0.076-0.31-0.116c2.403-1.76,4.593-3.871,6.514-6.273c0.541,0.23,1.025,0.467,1.461,0.707  C64.641,78.771,62.065,80.685,59.263,82.242z M70.104,64.259c-0.409-0.122-0.828-0.243-1.255-0.361  c-1.347-0.367-2.788-0.704-4.3-1.012c0.667-2.924,1.104-6.011,1.279-9.213c0.308,0.058,0.618,0.113,0.917,0.171  c2.155,0.426,4.126,0.9,5.914,1.412c-0.361,3.196-1.085,6.261-2.119,9.141C70.393,64.352,70.253,64.304,70.104,64.259z   M74.567,65.917c-0.893-0.412-1.877-0.802-2.947-1.167c1.037-2.893,1.77-5.965,2.146-9.165c1.351,0.418,2.581,0.858,3.68,1.315  C76.881,60.066,75.901,63.09,74.567,65.917z M84.336,51.14c-1.063-0.196-2.15-0.044-3.197,0.453  c-1.138,0.541-1.964,1.856-2.468,3.925c-0.62-1.499-1.529-2.63-2.721-3.374c-1.269-0.793-2.77-1.277-4.475-1.439  c0.983-0.701,1.628-1.539,1.924-2.51c0.416-1.36,0.097-2.93-0.948-4.679c1.634,0.224,3.16-0.542,4.502-2.259  c0.949-1.213,1.591-2.52,1.921-3.899c1.241,2.984,2.514,4.996,3.792,5.996c0.428,0.336,0.858,0.594,1.287,0.775  c-0.686,1.088-0.914,2.34-0.682,3.731C83.475,49.082,83.831,50.18,84.336,51.14z"/><text x="0" y="105" fill="#000000" font-size="5px" font-weight="bold" font-family="'Helvetica Neue', Helvetica, Arial-Unicode, Arial, Sans-serif">Created by Saishraddha Malage</text><text x="0" y="110" fill="#000000" font-size="5px" font-weight="bold" font-family="'Helvetica Neue', Helvetica, Arial-Unicode, Arial, Sans-serif">from the Noun Project</text></svg>